<?xml version="1.0" encoding="iso-8859-1"?>
<!-- Uploaded to: SVG Repo, www.svgrepo.com, Generator: SVG Repo Mixer Tools -->
<svg fill="#000000" height="800px" width="800px" version="1.1" id="Layer_1" xmlns="http://www.w3.org/2000/svg" xmlns:xlink="http://www.w3.org/1999/xlink" 
	 viewBox="0 0 512 512" xml:space="preserve">
<path d="M457.776,188.928h-52.048c-32.133-45.174-83.546-71.656-139.005-71.656c-48.356,0-94.386,20.353-126.954,56.634
	L6.329,275.218c-12.175,9.244-5.606,28.743,9.675,28.743h80.024v74.766c0,8.836,7.164,16,16,16h70.677c8.836,0,16-7.164,16-16
	v-20.24c41.479,12.608,94.559,12.608,136.038,0v20.24c0,8.836,7.164,16,16,16h70.677c8.836,0,16-7.164,16-16v-74.766H496
	c8.836,0,16-7.164,16-16v-44.81C512,213.252,487.676,188.928,457.776,188.928z M401.934,257.073
	c1.307,5.745,1.998,10.123,2.546,14.884H128.962c0.589-5.068,1.451-10.014,2.562-14.884
	C140.56,257.073,387.272,257.073,401.934,257.073z M390.339,225.073h-63.24l18.823-51.04
	C364.624,187.062,379.887,204.574,390.339,225.073z M317.428,158.817l-24.435,66.255h-52.538l-24.43-66.243
	C248.927,145.856,285.744,146.315,317.428,158.817z M187.545,174.085l18.805,50.988h-63.215
	C153.905,203.925,169.49,186.656,187.545,174.085z M102.152,242.645c-2.51,9.115-4.407,19.115-5.367,29.317H63.537L102.152,242.645z
	 M366.744,362.728v-27.554c0-11.794-12.385-19.57-23.023-14.376c-41.017,20.036-112.975,20.037-153.992,0
	c-10.641-5.197-23.023,2.589-23.023,14.376v27.554h-38.677v-58.766h277.392v58.766H366.744z M480,271.961h-43.332
	c-1.625-17.404-5.974-34.748-12.938-51.034h34.046c12.254,0,22.224,9.969,22.224,22.223V271.961z"/>
</svg>